<svg width="37" height="36" viewBox="0 0 37 36" fill="none" xmlns="http://www.w3.org/2000/svg">
<path d="M7.25 18.1875C6.2 18.1875 5.3125 17.825 4.5875 17.1C3.8625 16.375 3.5 15.4875 3.5 14.4375C3.5 13.3875 3.8625 12.5 4.5875 11.775C5.3125 11.05 6.2 10.6875 7.25 10.6875C8.3 10.6875 9.1875 11.05 9.9125 11.775C10.6375 12.5 11 13.3875 11 14.4375C11 15.4875 10.6375 16.375 9.9125 17.1C9.1875 17.825 8.3 18.1875 7.25 18.1875ZM14 12.1875C12.95 12.1875 12.0625 11.825 11.3375 11.1C10.6125 10.375 10.25 9.4875 10.25 8.4375C10.25 7.3875 10.6125 6.5 11.3375 5.775C12.0625 5.05 12.95 4.6875 14 4.6875C15.05 4.6875 15.9375 5.05 16.6625 5.775C17.3875 6.5 17.75 7.3875 17.75 8.4375C17.75 9.4875 17.3875 10.375 16.6625 11.1C15.9375 11.825 15.05 12.1875 14 12.1875ZM23 12.1875C21.95 12.1875 21.0625 11.825 20.3375 11.1C19.6125 10.375 19.25 9.4875 19.25 8.4375C19.25 7.3875 19.6125 6.5 20.3375 5.775C21.0625 5.05 21.95 4.6875 23 4.6875C24.05 4.6875 24.9375 5.05 25.6625 5.775C26.3875 6.5 26.75 7.3875 26.75 8.4375C26.75 9.4875 26.3875 10.375 25.6625 11.1C24.9375 11.825 24.05 12.1875 23 12.1875ZM29.75 18.1875C28.7 18.1875 27.8125 17.825 27.0875 17.1C26.3625 16.375 26 15.4875 26 14.4375C26 13.3875 26.3625 12.5 27.0875 11.775C27.8125 11.05 28.7 10.6875 29.75 10.6875C30.8 10.6875 31.6875 11.05 32.4125 11.775C33.1375 12.5 33.5 13.3875 33.5 14.4375C33.5 15.4875 33.1375 16.375 32.4125 17.1C31.6875 17.825 30.8 18.1875 29.75 18.1875ZM10.475 33.1875C9.35 33.1875 8.40625 32.7563 7.64375 31.8938C6.88125 31.0313 6.5 30.0125 6.5 28.8375C6.5 27.5375 6.94375 26.4 7.83125 25.425C8.71875 24.45 9.6 23.4875 10.475 22.5375C11.2 21.7625 11.825 20.9188 12.35 20.0063C12.875 19.0938 13.5 18.2375 14.225 17.4375C14.775 16.7875 15.4125 16.25 16.1375 15.825C16.8625 15.4 17.65 15.1875 18.5 15.1875C19.35 15.1875 20.1375 15.3875 20.8625 15.7875C21.5875 16.1875 22.225 16.7125 22.775 17.3625C23.475 18.1625 24.0938 19.025 24.6313 19.95C25.1688 20.875 25.8 21.7375 26.525 22.5375C27.4 23.4875 28.2813 24.45 29.1688 25.425C30.0563 26.4 30.5 27.5375 30.5 28.8375C30.5 30.0125 30.1188 31.0313 29.3563 31.8938C28.5938 32.7563 27.65 33.1875 26.525 33.1875C25.175 33.1875 23.8375 33.075 22.5125 32.85C21.1875 32.625 19.85 32.5125 18.5 32.5125C17.15 32.5125 15.8125 32.625 14.4875 32.85C13.1625 33.075 11.825 33.1875 10.475 33.1875Z" fill="black"/>
</svg>
