<svg width="200" height="68" viewBox="0 0 200 68" fill="none" xmlns="http://www.w3.org/2000/svg">
<path d="M16.0017 45.0584C17.2426 45.0584 18.252 44.846 19.0298 44.4212C19.8262 43.9963 20.4467 43.4465 20.8912 42.7718C21.3357 42.097 21.6412 41.3348 21.8079 40.4851C21.9746 39.6354 22.0579 38.7732 22.0579 37.8986C22.0579 36.8989 21.9561 35.9993 21.7524 35.1996C21.5672 34.3999 21.2338 33.7251 20.7523 33.1753C20.2892 32.6255 19.6688 32.2007 18.8909 31.9008C18.1131 31.6009 17.1315 31.4509 15.9462 31.4509H9.38991V45.0584H16.0017ZM9.38991 9.48401V22.9791H14.2793C15.3165 22.9791 16.2518 22.8791 17.0852 22.6792C17.9186 22.4792 18.6224 22.1294 19.1965 21.6295C19.7892 21.1297 20.2337 20.4425 20.53 19.5678C20.8449 18.6931 21.0023 17.5935 21.0023 16.269C21.0023 14.9695 20.8819 13.8949 20.6411 13.0452C20.4004 12.1705 20.03 11.4708 19.5299 10.946C19.0298 10.4212 18.3909 10.0463 17.613 9.82139C16.8537 9.59647 15.9462 9.48401 14.8905 9.48401H9.38991ZM14.8905 0C17.6871 0 20.067 0.349871 22.0302 1.04961C23.9933 1.74936 25.5954 2.73649 26.8362 4.01103C28.0771 5.28556 28.9754 6.83499 29.531 8.65931C30.1051 10.4836 30.3922 12.5204 30.3922 14.7696C30.3922 15.9941 30.2625 17.1812 30.0033 18.3308C29.744 19.4553 29.3365 20.5175 28.7809 21.5171C28.2253 22.4917 27.5122 23.3914 26.6418 24.2161C25.7713 25.0408 24.7249 25.753 23.5026 26.3528C26.1695 27.2275 28.1419 28.6395 29.4199 30.5888C30.6978 32.538 31.3367 35.0621 31.3367 38.161C31.3367 40.4851 31.0034 42.6468 30.3366 44.6461C29.6699 46.6453 28.6883 48.3947 27.3919 49.8942C26.1139 51.3686 24.5304 52.5307 22.6413 53.3804C20.7523 54.2051 18.5946 54.6174 16.1684 54.6174H0V0H14.8905Z" fill="#FE6C36"/>
<path d="M43.7899 21.742C44.6789 19.6428 45.6975 17.9934 46.8458 16.7938C48.0126 15.5943 49.3461 14.9945 50.8462 14.9945C52.1427 14.9945 53.1983 15.4068 54.0132 16.2315L53.4576 24.7784C53.365 25.3282 53.2076 25.703 52.9854 25.903C52.7816 26.1029 52.4946 26.2029 52.1241 26.2029C51.976 26.2029 51.7815 26.1904 51.5407 26.1654C51.3 26.1404 51.05 26.1154 50.7907 26.0904C50.5314 26.0404 50.2628 26.0029 49.985 25.9779C49.7257 25.928 49.485 25.903 49.2627 25.903C48.0033 25.903 46.994 26.3528 46.2346 27.2525C45.4938 28.1521 44.8641 29.4017 44.3455 31.0011V54.6174H35.7335V15.7442H40.8451C41.2711 15.7442 41.623 15.7942 41.9008 15.8942C42.1971 15.9941 42.4379 16.1566 42.6231 16.3815C42.8268 16.5814 42.975 16.8563 43.0676 17.2062C43.1787 17.556 43.2713 17.9809 43.3454 18.4807L43.7899 21.742Z" fill="#FE6C36"/>
<path d="M82.785 15.7442V54.6174H77.4511C76.3769 54.6174 75.6731 53.9677 75.3398 52.6681L74.8397 50.419C74.2841 51.1437 73.71 51.806 73.1173 52.4057C72.5247 52.9805 71.8857 53.4803 71.2004 53.9052C70.5337 54.305 69.8021 54.6174 69.0058 54.8423C68.2279 55.0922 67.3759 55.2172 66.4499 55.2172C64.8757 55.2172 63.4774 54.8548 62.255 54.1301C61.0512 53.3804 60.0326 52.3433 59.1991 51.0187C58.3657 49.6942 57.736 48.1323 57.31 46.333C56.8841 44.5336 56.6711 42.5594 56.6711 40.4101V15.7442H65.2831V40.4101C65.2831 42.3344 65.6072 43.8214 66.2555 44.871C66.9037 45.9206 67.8575 46.4454 69.1169 46.4454C70.0614 46.4454 70.9411 46.183 71.756 45.6582C72.5895 45.1084 73.3951 44.3712 74.173 43.4465V15.7442H82.785Z" fill="#FE6C36"/>
<path d="M99.6098 33.1378C101.036 33.1378 102.064 32.663 102.693 31.7133C103.342 30.7387 103.666 29.4892 103.666 27.9647C103.666 26.3903 103.342 25.1533 102.693 24.2536C102.064 23.3539 101.036 22.9041 99.6098 22.9041C98.1837 22.9041 97.1465 23.3539 96.4983 24.2536C95.8686 25.1533 95.5538 26.3903 95.5538 27.9647C95.5538 28.7144 95.6279 29.4017 95.776 30.0265C95.9427 30.6512 96.1927 31.201 96.5261 31.6759C96.8595 32.1257 97.2762 32.4881 97.7762 32.763C98.2948 33.0129 98.906 33.1378 99.6098 33.1378ZM106.277 56.0419C106.277 55.1172 105.972 54.455 105.36 54.0551C104.749 53.6303 103.953 53.3304 102.971 53.1555C101.99 52.9805 100.888 52.8806 99.6653 52.8556C98.4615 52.8056 97.2577 52.7056 96.0538 52.5557C95.5167 53.0555 95.0722 53.6178 94.7203 54.2426C94.387 54.8423 94.2203 55.5296 94.2203 56.3043C94.2203 56.8541 94.3036 57.3539 94.4703 57.8037C94.6555 58.2536 94.9704 58.6409 95.4149 58.9658C95.8594 59.2907 96.452 59.5406 97.1928 59.7155C97.9522 59.9155 98.906 60.0154 100.054 60.0154C101.295 60.0154 102.314 59.9155 103.11 59.7155C103.907 59.5156 104.536 59.2407 104.999 58.8908C105.481 58.541 105.814 58.1161 105.999 57.6163C106.185 57.1415 106.277 56.6167 106.277 56.0419ZM114.778 16.9438V21.1797C114.778 21.8295 114.639 22.3418 114.361 22.7166C114.102 23.0915 113.648 23.3789 113 23.5788L110.917 24.2161C111.028 24.7659 111.111 25.3282 111.167 25.903C111.241 26.4778 111.278 27.0775 111.278 27.7023C111.278 29.6516 110.972 31.401 110.361 32.9504C109.768 34.4998 108.944 35.8243 107.888 36.9239C106.851 37.9985 105.62 38.8357 104.194 39.4355C102.768 40.0103 101.24 40.2977 99.6098 40.2977C99.1653 40.2977 98.73 40.2852 98.3041 40.2602C97.8781 40.2102 97.4614 40.1352 97.0539 40.0353C96.4242 40.5601 96.1094 41.1474 96.1094 41.7971C96.1094 42.4469 96.3687 42.9217 96.8872 43.2216C97.4058 43.4965 98.0911 43.6964 98.943 43.8214C99.795 43.9214 100.758 43.9963 101.832 44.0463C102.925 44.0713 104.036 44.1588 105.166 44.3087C106.296 44.4337 107.398 44.6586 108.472 44.9835C109.565 45.3083 110.537 45.8331 111.389 46.5579C112.241 47.2826 112.926 48.2573 113.445 49.4818C113.963 50.6814 114.222 52.2183 114.222 54.0926C114.222 55.842 113.908 57.5538 113.278 59.2282C112.648 60.9026 111.722 62.3896 110.5 63.6891C109.277 64.9886 107.777 66.0257 105.999 66.8004C104.221 67.6001 102.184 68 99.8876 68C97.6281 68 95.6742 67.7126 94.0258 67.1378C92.396 66.563 91.0348 65.8008 89.942 64.8512C88.8679 63.9265 88.0715 62.8519 87.5529 61.6273C87.0343 60.4028 86.775 59.1283 86.775 57.8037C86.775 56.0794 87.1455 54.6424 87.8863 53.4928C88.6271 52.3433 89.6642 51.4186 90.9977 50.7189C90.2939 50.1441 89.7383 49.4068 89.3309 48.5072C88.9234 47.6075 88.7197 46.4454 88.7197 45.0209C88.7197 44.4462 88.7938 43.8464 88.9419 43.2216C89.0901 42.5718 89.3216 41.9471 89.6365 41.3473C89.9698 40.7225 90.3773 40.1352 90.8588 39.5854C91.3403 39.0356 91.9145 38.5483 92.5812 38.1235C91.0811 37.0489 89.8957 35.6369 89.0253 33.8875C88.1548 32.1132 87.7196 30.0515 87.7196 27.7023C87.7196 25.753 88.0252 24.0037 88.6364 22.4542C89.2475 20.8798 90.081 19.5553 91.1366 18.4807C92.2108 17.3811 93.4702 16.5439 94.9148 15.9691C96.3594 15.3693 97.9244 15.0695 99.6098 15.0695C102.054 15.0695 104.221 15.6942 106.11 16.9438H114.778Z" fill="#FE6C36"/>
<path d="M133.162 26.8026C135.606 26.8026 137.366 26.0154 138.44 24.441C139.514 22.8666 140.051 20.6674 140.051 17.8434C140.051 16.5939 139.912 15.4568 139.635 14.4322C139.357 13.4076 138.931 12.5329 138.357 11.8082C137.801 11.0584 137.088 10.4836 136.217 10.0838C135.366 9.68394 134.347 9.48401 133.162 9.48401H128.272V26.8026H133.162ZM133.162 0C136.014 0 138.458 0.462329 140.496 1.38699C142.551 2.28666 144.237 3.5362 145.552 5.13561C146.885 6.73502 147.867 8.62183 148.497 10.796C149.126 12.9702 149.441 15.3194 149.441 17.8434C149.441 20.5674 149.117 23.0665 148.469 25.3407C147.821 27.6148 146.83 29.5641 145.496 31.1885C144.163 32.8129 142.468 34.0875 140.412 35.0121C138.375 35.9118 135.958 36.3616 133.162 36.3616H128.272V54.6174H118.882V0H133.162Z" fill="#FE6C36"/>
<path d="M169.984 30.5138C169.984 29.5891 169.892 28.6895 169.706 27.8148C169.54 26.9401 169.253 26.1654 168.845 25.4906C168.456 24.7909 167.938 24.2286 167.289 23.8037C166.641 23.3789 165.854 23.1665 164.928 23.1665C163.298 23.1665 162.02 23.8037 161.094 25.0783C160.168 26.3278 159.557 28.1397 159.261 30.5138H169.984ZM159.15 37.2613C159.427 40.5101 160.159 42.8717 161.344 44.3462C162.53 45.7957 164.058 46.5204 165.928 46.5204C166.928 46.5204 167.789 46.358 168.512 46.0331C169.234 45.7082 169.873 45.3458 170.429 44.946C171.003 44.5461 171.521 44.1838 171.984 43.8589C172.466 43.534 172.966 43.3716 173.485 43.3716C174.17 43.3716 174.688 43.7089 175.04 44.3837L177.541 48.5447C176.652 49.9191 175.688 51.0437 174.651 51.9184C173.633 52.7681 172.577 53.4429 171.484 53.9427C170.41 54.4175 169.327 54.7424 168.234 54.9173C167.16 55.1172 166.132 55.2172 165.15 55.2172C163.132 55.2172 161.233 54.7799 159.455 53.9052C157.696 53.0055 156.149 51.681 154.816 49.9316C153.501 48.1823 152.454 46.0081 151.677 43.409C150.917 40.81 150.538 37.7861 150.538 34.3374C150.538 31.7383 150.862 29.2767 151.51 26.9526C152.177 24.6284 153.121 22.5917 154.344 20.8423C155.584 19.093 157.075 17.706 158.816 16.6814C160.576 15.6567 162.557 15.1444 164.761 15.1444C166.669 15.1444 168.41 15.5443 169.984 16.344C171.577 17.1437 172.938 18.3058 174.068 19.8302C175.216 21.3546 176.105 23.229 176.735 25.4531C177.383 27.6523 177.707 30.1514 177.707 32.9504C177.707 33.8251 177.679 34.5373 177.624 35.0871C177.568 35.6369 177.466 36.0742 177.318 36.3991C177.17 36.724 176.966 36.9489 176.707 37.0739C176.466 37.1988 176.151 37.2613 175.763 37.2613H159.15Z" fill="#FE6C36"/>
<path d="M191.944 55.2172C190.573 55.2172 189.36 54.9548 188.304 54.43C187.267 53.8802 186.387 53.118 185.665 52.1433C184.961 51.1437 184.424 49.9441 184.054 48.5447C183.683 47.1452 183.498 45.5832 183.498 43.8589V23.7663H181.053C180.609 23.7663 180.229 23.5788 179.914 23.204C179.6 22.8041 179.442 22.2293 179.442 21.4796V16.9438L184.026 15.7442L185.721 6.2602C185.943 5.06064 186.573 4.46086 187.61 4.46086H192.11V15.8192H199.25V23.7663H192.11V43.0717C192.11 43.9713 192.268 44.7211 192.583 45.3208C192.916 45.8956 193.388 46.183 193.999 46.183C194.314 46.183 194.573 46.1455 194.777 46.0706C194.999 45.9706 195.185 45.8706 195.333 45.7707C195.5 45.6457 195.648 45.5458 195.777 45.4708C195.925 45.3708 196.092 45.3208 196.277 45.3208C196.537 45.3208 196.74 45.4083 196.889 45.5832C197.055 45.7332 197.222 45.9831 197.389 46.333L200 51.8434C198.889 52.968 197.639 53.8177 196.25 54.3925C194.861 54.9423 193.425 55.2172 191.944 55.2172Z" fill="#FE6C36"/>
</svg>
